<svg xmlns="http://www.w3.org/2000/svg" width="19.667" height="19.667" viewBox="0 0 19.667 19.667">
  <path id="Icon_awesome-phone-alt" data-name="Icon awesome-phone-alt" d="M19.106,13.9l-4.3-1.844a.922.922,0,0,0-1.076.265l-1.905,2.328A14.238,14.238,0,0,1,5.017,7.841L7.344,5.935A.92.92,0,0,0,7.61,4.86L5.766.558A.928.928,0,0,0,4.709.024L.714.946a.922.922,0,0,0-.714.9A17.821,17.821,0,0,0,17.823,19.667a.922.922,0,0,0,.9-.714l.922-3.995a.933.933,0,0,0-.538-1.06Z" transform="translate(0 0)" fill="#0082c8"/>
</svg>
