<svg xmlns="http://www.w3.org/2000/svg" width="235.241" height="61.036" viewBox="0 0 235.241 61.036">
  <g id="Group_19" data-name="Group 19" transform="translate(305.897 -210.607)">
    <g id="Group_11" data-name="Group 11" transform="translate(-241.231 234.898)">
      <g id="Group_10" data-name="Group 10">
        <path id="Path_26" data-name="Path 26" d="M-244.639,238.815a3.126,3.126,0,0,1-3.378,2.6c-2.338,0-3.542-1.617-3.542-3.876,0-2.218,1.354-3.986,3.641-3.986a2.969,2.969,0,0,1,3.279,2.668h-2.03a1.176,1.176,0,0,0-1.288-1.041c-.951,0-1.49.834-1.49,2.291,0,1.6.569,2.33,1.481,2.33a1.279,1.279,0,0,0,1.283-.988Z" transform="translate(251.559 -230.648)" fill="#fff"/>
        <path id="Path_27" data-name="Path 27" d="M-243,233.7c.777,2.593,1.453,4.906,1.572,5.6h.014c.164-.758.6-2.442,1.5-5.6h2.07l-2.523,7.73c-.719,2.162-1.318,2.806-3.123,2.806-.185,0-.615-.014-.974-.056v-1.671c.141.016.369.03.537.03a1.313,1.313,0,0,0,1.431-1.1l-2.735-7.743Z" transform="translate(252.785 -230.62)" fill="#fff"/>
        <path id="Path_28" data-name="Path 28" d="M-238.183,231.12h2.081V235a2.349,2.349,0,0,1,2.15-.972c2.045,0,3.065,1.689,3.065,3.8,0,2.153-1.107,4.064-3.267,4.064a2.044,2.044,0,0,1-1.974-.886,3.675,3.675,0,0,1-.08.713H-238.2c.014-.815.014-1.642.014-2.458Zm5.184,6.744c0-1.252-.466-2.17-1.589-2.17-1.188,0-1.609.773-1.609,2.3,0,1.266.374,2.238,1.586,2.238C-233.554,240.236-233,239.285-233,237.864Z" transform="translate(254.146 -231.12)" fill="#fff"/>
        <path id="Path_29" data-name="Path 29" d="M-229.076,237.932c0,.939.473,1.859,1.509,1.859a1.184,1.184,0,0,0,1.311-.8h2.082a3.291,3.291,0,0,1-3.447,2.429c-2.474,0-3.548-1.85-3.548-3.821,0-2.357,1.209-4.04,3.623-4.04,2.579,0,3.458,1.867,3.458,3.742a4.607,4.607,0,0,1-.027.634Zm2.9-1.277c-.015-.876-.364-1.611-1.377-1.611-1,0-1.4.686-1.481,1.611Z" transform="translate(255.507 -230.648)" fill="#fff"/>
        <path id="Path_30" data-name="Path 30" d="M-224.013,235.769c0-.747,0-1.411-.014-2.039h2.04c.027.168.055.913.055,1.319a2.4,2.4,0,0,1,2.411-1.493v1.985c-1.511-.039-2.411.368-2.411,2.427v3.277h-2.081Z" transform="translate(256.89 -230.648)" fill="#fff"/>
        <path id="Path_31" data-name="Path 31" d="M-219.271,231.12h2.079v1.854h-2.079Zm0,3.082h2.079v7.514h-2.079Z" transform="translate(257.811 -231.12)" fill="#fff"/>
        <path id="Path_32" data-name="Path 32" d="M-215.951,235.623c0-.64,0-1.339-.014-1.893h2.015a8.819,8.819,0,0,1,.08.956,2.3,2.3,0,0,1,2.18-1.13c1.509,0,2.49,1.021,2.49,2.908v4.781h-2.081V236.7c0-.845-.282-1.457-1.2-1.457-.884,0-1.391.492-1.391,1.819v4.187h-2.081Z" transform="translate(258.451 -230.648)" fill="#fff"/>
        <path id="Path_33" data-name="Path 33" d="M-201.787,231.12v8.531c0,.683,0,1.376.014,2.065h-2c-.042-.226-.081-.614-.094-.785a2.263,2.263,0,0,1-2.132.958c-1.9,0-3.108-1.525-3.108-3.869,0-2.313,1.284-3.993,3.411-3.993,1.081,0,1.663.381,1.829.719V231.12Zm-5.184,6.846c0,1.465.571,2.258,1.589,2.258,1.43,0,1.595-1.194,1.595-2.274,0-1.284-.181-2.256-1.541-2.256C-206.421,235.694-206.971,236.546-206.971,237.966Z" transform="translate(259.779 -231.12)" fill="#fff"/>
        <path id="Path_34" data-name="Path 34" d="M-194.367,237.472a3.61,3.61,0,0,1-3.741,3.945,3.581,3.581,0,0,1-3.69-3.9,3.63,3.63,0,0,1,3.789-3.957C-195.8,233.556-194.367,235.117-194.367,237.472Zm-5.319.014c0,1.447.622,2.3,1.625,2.3,1.018,0,1.584-.858,1.584-2.291,0-1.573-.578-2.317-1.614-2.317C-199.055,235.183-199.685,235.9-199.685,237.487Z" transform="translate(261.195 -230.648)" fill="#fff"/>
        <path id="Path_35" data-name="Path 35" d="M-193.846,239.027c.3,1.048,1.179,1.638,2.677,1.638,1.628,0,2.244-.589,2.244-1.4,0-.72-.39-1.25-2.454-1.481-2.433-.279-2.967-1.1-2.967-2.011,0-.849.7-2.026,2.916-2.026,2.485,0,3.088,1.348,3.146,2.123h-.874c-.116-.491-.434-1.38-2.345-1.38-1.611,0-1.97.716-1.97,1.22,0,.674.4,1.077,2.237,1.308,2.608.321,3.185,1.083,3.185,2.2,0,1.294-.987,2.2-3.163,2.2s-3.246-.926-3.507-2.382Z" transform="translate(262.565 -230.612)" fill="#fff"/>
        <path id="Path_36" data-name="Path 36" d="M-187.364,233.912c1.7,3.79,2.71,5.988,2.969,6.653h.014c.289-.713,1.126-2.885,2.737-6.653h.9l-3.078,7.267c-1.307,3.056-1.826,3.448-3.287,3.448a5.815,5.815,0,0,1-.85-.072v-.838a6.459,6.459,0,0,0,.84.072c.974,0,1.434-.461,2.251-2.254l-3.438-7.624Z" transform="translate(263.808 -230.579)" fill="#fff"/>
        <path id="Path_37" data-name="Path 37" d="M-180.662,235.775c0-.61,0-1.278-.014-1.83h.816c.03.273.044.966.044,1.568a2.766,2.766,0,0,1,2.753-1.771c1.659,0,2.791,1.018,2.791,3.077v4.389h-.847V237c0-1.4-.532-2.462-2.061-2.462-1.756,0-2.633,1.379-2.633,3.269v3.4h-.848Z" transform="translate(265.285 -230.612)" fill="#fff"/>
        <path id="Path_38" data-name="Path 38" d="M-172.83,237.759a2.827,2.827,0,0,0,2.88,2.89,2.6,2.6,0,0,0,2.491-1.423h.848a3.435,3.435,0,0,1-3.439,2.184,3.581,3.581,0,0,1-3.641-3.805,3.591,3.591,0,0,1,3.6-3.863,3.447,3.447,0,0,1,3.6,3.764v.253Zm5.416-.727a2.506,2.506,0,0,0-2.692-2.531,2.584,2.584,0,0,0-2.7,2.531Z" transform="translate(266.637 -230.612)" fill="#fff"/>
        <path id="Path_39" data-name="Path 39" d="M-166.017,235.92c0-.654,0-1.323-.014-1.976h.816c.015.19.044.932.044,1.737a3.179,3.179,0,0,1,3.016-1.94v.87c-1.683-.016-3.016,1.178-3.016,3.355v3.241h-.846Z" transform="translate(268.121 -230.612)" fill="#fff"/>
        <path id="Path_40" data-name="Path 40" d="M-154.939,240.18c0,2.8-.764,4.48-3.716,4.48-2.643,0-3.237-1.56-3.382-2.443h.876c.245.891.85,1.681,2.551,1.681,2.477,0,2.84-1.6,2.84-3.7v-.446a2.849,2.849,0,0,1-2.909,1.6,3.461,3.461,0,0,1-3.445-3.69,3.721,3.721,0,0,1,3.619-3.921c1.738,0,2.489.837,2.735,1.485,0-.4.014-1.066.043-1.282h.8c-.016.7-.016,1.4-.016,2.092Zm-6.308-2.562a2.734,2.734,0,0,0,2.739,2.927c1.715,0,2.767-1.08,2.767-3.014,0-1.972-1.007-3-2.681-3A2.844,2.844,0,0,0-161.248,237.619Z" transform="translate(268.877 -230.612)" fill="#fff"/>
        <path id="Path_41" data-name="Path 41" d="M-153.916,233.912c1.7,3.79,2.711,5.988,2.969,6.653h.016c.289-.713,1.126-2.885,2.737-6.653h.9l-3.08,7.267c-1.306,3.056-1.825,3.448-3.287,3.448a5.8,5.8,0,0,1-.849-.072v-.838a6.443,6.443,0,0,0,.84.072c.974,0,1.434-.461,2.251-2.254l-3.439-7.624Z" transform="translate(270.285 -230.579)" fill="#fff"/>
        <path id="Path_42" data-name="Path 42" d="M-145.88,238.985a1.3,1.3,0,0,0,1.422.935c.769,0,1.048-.276,1.048-.731,0-.482-.323-.672-1.4-.936-2.448-.6-2.849-1.361-2.849-2.422,0-1.1.781-2.275,3.047-2.275s3.051,1.244,3.115,2.263h-1.978c-.067-.278-.252-.8-1.231-.8-.688,0-.91.306-.91.643,0,.372.234.554,1.454.838,2.507.582,2.86,1.443,2.86,2.545,0,1.244-.945,2.375-3.236,2.375s-3.224-1.1-3.389-2.433Z" transform="translate(271.627 -230.648)" fill="#fff"/>
        <path id="Path_43" data-name="Path 43" d="M-139.76,233.7c.777,2.593,1.454,4.906,1.572,5.6h.015c.162-.758.6-2.442,1.5-5.6h2.071l-2.525,7.73c-.719,2.162-1.318,2.806-3.123,2.806-.185,0-.614-.014-.974-.056v-1.671c.141.016.369.03.538.03a1.312,1.312,0,0,0,1.43-1.1l-2.735-7.743Z" transform="translate(272.776 -230.62)" fill="#fff"/>
        <path id="Path_44" data-name="Path 44" d="M-133.353,238.985a1.3,1.3,0,0,0,1.423.935c.767,0,1.048-.276,1.048-.731,0-.482-.323-.672-1.4-.936-2.447-.6-2.847-1.361-2.847-2.422,0-1.1.779-2.275,3.046-2.275s3.051,1.244,3.115,2.263h-1.978c-.067-.278-.252-.8-1.231-.8-.688,0-.91.306-.91.643,0,.372.233.554,1.453.838,2.507.582,2.861,1.443,2.861,2.545,0,1.244-.947,2.375-3.237,2.375s-3.223-1.1-3.388-2.433Z" transform="translate(274.053 -230.648)" fill="#fff"/>
        <path id="Path_45" data-name="Path 45" d="M-129.378,234.032h1.158V232h2.081v2.034h1.472V235.6h-1.472V239.3c0,.569.173.791.794.791a3.826,3.826,0,0,0,.474-.023v1.43a4.7,4.7,0,0,1-1.4.144c-1.466,0-1.95-.784-1.95-2.1V235.6h-1.158Z" transform="translate(275.218 -230.95)" fill="#fff"/>
        <path id="Path_46" data-name="Path 46" d="M-122.746,237.932c0,.939.473,1.859,1.509,1.859a1.186,1.186,0,0,0,1.311-.8h2.082a3.292,3.292,0,0,1-3.447,2.429c-2.474,0-3.549-1.85-3.549-3.821,0-2.357,1.209-4.04,3.623-4.04,2.581,0,3.458,1.867,3.458,3.742a4.6,4.6,0,0,1-.027.634Zm2.9-1.277c-.014-.876-.363-1.611-1.377-1.611-1,0-1.4.686-1.48,1.611Z" transform="translate(276.097 -230.648)" fill="#fff"/>
        <path id="Path_47" data-name="Path 47" d="M-117.684,235.666c0-.649,0-1.293-.014-1.936h1.99c.027.183.068.6.08.9a2.343,2.343,0,0,1,2.088-1.071A1.985,1.985,0,0,1-111.6,234.7a2.607,2.607,0,0,1,2.316-1.142c1.309,0,2.381.8,2.381,2.758v4.93h-2.029v-4.675c0-.68-.247-1.343-1.1-1.343-.884,0-1.229.569-1.229,1.722v4.3h-2.04v-4.6c0-.778-.191-1.409-1.079-1.409-.846,0-1.247.52-1.247,1.81v4.2h-2.055Z" transform="translate(277.48 -230.648)" fill="#fff"/>
      </g>
    </g>
    <g id="Group_18" data-name="Group 18" transform="translate(-304.897 211.607)">
      <g id="Group_17" data-name="Group 17">
        <g id="Group_13" data-name="Group 13" transform="translate(28.338)">
          <g id="Group_12" data-name="Group 12">
            <circle id="Ellipse_5" data-name="Ellipse 5" cx="2.455" cy="2.455" r="2.455" transform="translate(10.271 38.587)" fill="none" stroke="#fff" stroke-width="2"/>
            <circle id="Ellipse_6" data-name="Ellipse 6" cx="3.849" cy="3.849" r="3.849" transform="translate(15.181 44.144)" fill="none" stroke="#fff" stroke-width="2"/>
            <circle id="Ellipse_7" data-name="Ellipse 7" cx="3.849" cy="3.849" r="3.849" transform="translate(10.271 12.82)" fill="none" stroke="#fff" stroke-width="2"/>
            <circle id="Ellipse_8" data-name="Ellipse 8" cx="2.455" cy="2.455" r="2.455" fill="none" stroke="#fff" stroke-width="2"/>
          </g>
        </g>
        <g id="Group_14" data-name="Group 14" transform="translate(0 2.455)">
          <path id="Path_48" data-name="Path 48" d="M-257.757,263.051a28.187,28.187,0,0,1-18.85,7.194,28.29,28.29,0,0,1-28.29-28.29,28.29,28.29,0,0,1,28.29-28.29" transform="translate(304.897 -213.664)" fill="none" stroke="#fff" stroke-width="2"/>
        </g>
        <g id="Group_15" data-name="Group 15" transform="translate(5.617 7.65)">
          <path id="Path_49" data-name="Path 49" d="M-262.408,258.36a22.824,22.824,0,0,1-14.872,5.481,22.912,22.912,0,0,1-22.912-22.912,22.912,22.912,0,0,1,22.912-22.913,22.814,22.814,0,0,1,14.164,4.9" transform="translate(300.191 -218.016)" fill="none" stroke="#fff" stroke-width="2"/>
        </g>
        <g id="Group_16" data-name="Group 16" transform="translate(12.844 14.37)">
          <path id="Path_50" data-name="Path 50" d="M-267.366,252.508a16.259,16.259,0,0,1-10.448,3.781,16.322,16.322,0,0,1-16.323-16.322,16.322,16.322,0,0,1,16.323-16.322,16.243,16.243,0,0,1,9.443,3.007" transform="translate(294.137 -223.646)" fill="none" stroke="#fff" stroke-width="2"/>
        </g>
      </g>
    </g>
  </g>
</svg>
