<svg id="menu_black_48dp" xmlns="http://www.w3.org/2000/svg" width="32" height="32" viewBox="0 0 32 32">
  <path id="Path_119" data-name="Path 119" d="M0,0H32V32H0Z" fill="none"/>
  <path id="Path_120" data-name="Path 120" d="M4.333,22H25.667a1.333,1.333,0,1,0,0-2.667H4.333a1.333,1.333,0,0,0,0,2.667Zm0-6.667H25.667a1.333,1.333,0,1,0,0-2.667H4.333a1.333,1.333,0,0,0,0,2.667ZM3,7.333A1.337,1.337,0,0,0,4.333,8.667H25.667a1.333,1.333,0,1,0,0-2.667H4.333A1.337,1.337,0,0,0,3,7.333Z" transform="translate(1 2)" fill="#fff"/>
</svg>
