<svg xmlns="http://www.w3.org/2000/svg" width="13.992" height="28" viewBox="0 0 13.992 28">
  <g id="Group_63" data-name="Group 63" transform="translate(-313 -526)">
    <path id="Icon_ionic-ios-arrow-down" data-name="Icon ionic-ios-arrow-down" d="M13.186,16.835l5.291-5.295a1,1,0,0,1,1.412,0,1.008,1.008,0,0,1,0,1.416l-5.995,6a1,1,0,0,1-1.379.029L6.479,12.961a1,1,0,0,1,1.412-1.416Z" transform="translate(306.813 534.754)" fill="#fff" opacity="0.2"/>
    <path id="Icon_ionic-ios-arrow-down-2" data-name="Icon ionic-ios-arrow-down" d="M13.186,16.835l5.291-5.295a1,1,0,0,1,1.412,0,1.008,1.008,0,0,1,0,1.416l-5.995,6a1,1,0,0,1-1.379.029L6.479,12.961a1,1,0,0,1,1.412-1.416Z" transform="translate(306.813 524.754)" fill="#fff" opacity="0.5"/>
    <path id="Icon_ionic-ios-arrow-down-3" data-name="Icon ionic-ios-arrow-down" d="M13.186,16.835l5.291-5.295a1,1,0,0,1,1.412,0,1.008,1.008,0,0,1,0,1.416l-5.995,6a1,1,0,0,1-1.379.029L6.479,12.961a1,1,0,0,1,1.412-1.416Z" transform="translate(306.813 514.754)" fill="#fff"/>
  </g>
</svg>
