<svg xmlns="http://www.w3.org/2000/svg" width="12.813" height="20.5" viewBox="0 0 12.813 20.5">
  <path id="Icon_metro-location" data-name="Icon metro-location" d="M14.761,1.928A6.406,6.406,0,0,0,8.355,8.334c0,6.406,6.406,14.094,6.406,14.094s6.406-7.688,6.406-14.094a6.406,6.406,0,0,0-6.406-6.406Zm0,10.33a3.924,3.924,0,1,1,3.924-3.924A3.924,3.924,0,0,1,14.761,12.258ZM12.279,8.334a2.482,2.482,0,1,1,2.482,2.482A2.482,2.482,0,0,1,12.279,8.334Z" transform="translate(-8.355 -1.928)" fill="#0082c8"/>
</svg>
