<svg xmlns="http://www.w3.org/2000/svg" width="134.478" height="40" viewBox="0 0 134.478 40">
  <g id="Group_36" data-name="Group 36" transform="translate(481.685 -1531.246)">
    <g id="Group_28" data-name="Group 28" transform="translate(-430.616 1545.471)" style="mix-blend-mode: normal;isolation: isolate">
      <path id="Path_62" data-name="Path 62" d="M-316.53,1591.491v8.1h-3.314v-20.273h5.727q3.924,0,5.81,1.47a5.278,5.278,0,0,1,1.886,4.438q0,3.786-3.938,5.394l5.727,8.972H-308.4l-4.853-8.1Zm0-2.745h2.3a5.254,5.254,0,0,0,3.356-.86,3.119,3.119,0,0,0,1.04-2.551,2.747,2.747,0,0,0-1.123-2.469,6.16,6.16,0,0,0-3.384-.749h-2.191Z" transform="translate(319.844 -1578.373)" fill="#fff"/>
      <path id="Path_63" data-name="Path 63" d="M-256.169,1609.7l-.652-2.135h-.111a6.29,6.29,0,0,1-2.233,1.907,7.075,7.075,0,0,1-2.884.506,4.88,4.88,0,0,1-3.529-1.22,4.566,4.566,0,0,1-1.269-3.452,4.055,4.055,0,0,1,1.761-3.578,10.153,10.153,0,0,1,5.367-1.318l2.649-.083v-.818a3.1,3.1,0,0,0-.687-2.2,2.8,2.8,0,0,0-2.128-.728,7.353,7.353,0,0,0-2.26.347,17,17,0,0,0-2.08.818l-1.054-2.329a11.365,11.365,0,0,1,2.732-.992,12.6,12.6,0,0,1,2.8-.339,6.636,6.636,0,0,1,4.417,1.276,5,5,0,0,1,1.491,4.008v10.33Zm-4.853-2.219a4.038,4.038,0,0,0,2.85-.991,3.6,3.6,0,0,0,1.075-2.781v-1.331l-1.969.084a6.731,6.731,0,0,0-3.349.77,2.337,2.337,0,0,0-1.047,2.1,2.05,2.05,0,0,0,.61,1.588A2.622,2.622,0,0,0-261.022,1607.477Z" transform="translate(283.569 -1588.48)" fill="#fff"/>
      <path id="Path_64" data-name="Path 64" d="M-197.719,1609.7h-3.273v-9.429a4.127,4.127,0,0,0-.714-2.649,2.761,2.761,0,0,0-2.267-.874,3.6,3.6,0,0,0-3.023,1.221,6.738,6.738,0,0,0-.957,4.09v7.641h-3.259v-15.337h2.552l.458,2.011h.166a4.533,4.533,0,0,1,1.969-1.692,6.6,6.6,0,0,1,2.829-.6q5.519,0,5.519,5.616Z" transform="translate(245.49 -1588.48)" fill="#fff"/>
      <path id="Path_65" data-name="Path 65" d="M-152.249,1600.541a7.925,7.925,0,0,0,2.385-.375v2.455a6.587,6.587,0,0,1-1.394.395,9.565,9.565,0,0,1-1.768.16q-4.631,0-4.631-4.881v-8.265h-2.094v-1.442l2.246-1.193,1.109-3.245h2.011v3.411h4.368v2.468h-4.368v8.209a2.3,2.3,0,0,0,.589,1.74A2.15,2.15,0,0,0-152.249,1600.541Z" transform="translate(210.268 -1581.682)" fill="#fff"/>
      <path id="Path_66" data-name="Path 66" d="M-111.457,1609.7l-.652-2.135h-.111a6.29,6.29,0,0,1-2.233,1.907,7.075,7.075,0,0,1-2.884.506,4.88,4.88,0,0,1-3.529-1.22,4.565,4.565,0,0,1-1.269-3.452,4.054,4.054,0,0,1,1.761-3.578,10.153,10.153,0,0,1,5.367-1.318l2.649-.083v-.818a3.1,3.1,0,0,0-.687-2.2,2.8,2.8,0,0,0-2.128-.728,7.352,7.352,0,0,0-2.26.347,17.005,17.005,0,0,0-2.08.818l-1.054-2.329a11.363,11.363,0,0,1,2.732-.992,12.594,12.594,0,0,1,2.8-.339,6.636,6.636,0,0,1,4.417,1.276,5,5,0,0,1,1.491,4.008v10.33Zm-4.853-2.219a4.038,4.038,0,0,0,2.85-.991,3.6,3.6,0,0,0,1.075-2.781v-1.331l-1.969.084a6.731,6.731,0,0,0-3.349.77,2.338,2.338,0,0,0-1.047,2.1,2.05,2.05,0,0,0,.61,1.588A2.622,2.622,0,0,0-116.31,1607.477Z" transform="translate(184.521 -1588.48)" fill="#fff"/>
      <path id="Path_67" data-name="Path 67" d="M-67.114,1578.145a1.8,1.8,0,0,1,.478-1.345,1.863,1.863,0,0,1,1.366-.471,1.824,1.824,0,0,1,1.338.471,1.8,1.8,0,0,1,.478,1.345,1.772,1.772,0,0,1-.478,1.311,1.809,1.809,0,0,1-1.338.478,1.847,1.847,0,0,1-1.366-.478A1.772,1.772,0,0,1-67.114,1578.145Zm3.453,19.4H-66.92v-15.337h3.259Z" transform="translate(146.862 -1576.328)" fill="#fff"/>
    </g>
    <g id="Group_35" data-name="Group 35" transform="translate(-481.685 1531.246)">
      <g id="Group_29" data-name="Group 29" transform="translate(0 11.53)">
        <path id="Path_68" data-name="Path 68" d="M-476.615,1592.45a1.264,1.264,0,0,1-.893-.37,14.3,14.3,0,0,1,0-20.2,14.121,14.121,0,0,1,8.472-4.089,1.265,1.265,0,0,1,1.035.362,1.263,1.263,0,0,1,.361,1.035,11.7,11.7,0,0,0,3.367,9.653,4.44,4.44,0,0,1,0,6.273,4.4,4.4,0,0,1-3.136,1.3,4.414,4.414,0,0,1-2.116-.535l-6.2,6.2A1.262,1.262,0,0,1-476.615,1592.45Zm6.373-21.882a11.622,11.622,0,0,0-5.482,3.1,11.774,11.774,0,0,0-.843,15.687l6.021-6.022a1.263,1.263,0,0,1,.893-.37h0a1.261,1.261,0,0,1,.892.37,1.9,1.9,0,0,0,1.351.56,1.9,1.9,0,0,0,1.351-.56,1.914,1.914,0,0,0,0-2.7A14.2,14.2,0,0,1-470.242,1570.568Z" transform="translate(481.685 -1567.787)" fill="#fff"/>
      </g>
      <g id="Group_30" data-name="Group 30" transform="translate(9.839 21.291)">
        <path id="Path_69" data-name="Path 69" d="M-446.069,1607.59a4.405,4.405,0,0,1-3.136-1.3,4.407,4.407,0,0,1-1.3-3.136,4.4,4.4,0,0,1,1.3-3.137,4.441,4.441,0,0,1,6.274,0h0a4.441,4.441,0,0,1,0,6.273A4.4,4.4,0,0,1-446.069,1607.59Zm0-6.347a1.908,1.908,0,0,0-1.353.559,1.9,1.9,0,0,0-.56,1.351,1.9,1.9,0,0,0,.561,1.352,1.9,1.9,0,0,0,1.351.56,1.9,1.9,0,0,0,1.351-.56,1.914,1.914,0,0,0,0-2.7A1.909,1.909,0,0,0-446.069,1601.243Z" transform="translate(450.505 -1598.719)" fill="#fff"/>
      </g>
      <g id="Group_33" data-name="Group 33" transform="translate(21.291 3.807)">
        <g id="Group_31" data-name="Group 31">
          <path id="Path_70" data-name="Path 70" d="M-408.295,1567.976a1.264,1.264,0,0,1-.893-.369,1.265,1.265,0,0,1-.361-1.037,11.7,11.7,0,0,0-3.365-9.654,4.441,4.441,0,0,1,0-6.273,4.446,4.446,0,0,1,5.253-.763l6.2-6.2a1.263,1.263,0,0,1,.893-.37h0a1.263,1.263,0,0,1,.893.37,14.3,14.3,0,0,1,0,20.2,14.133,14.133,0,0,1-8.472,4.091A1.252,1.252,0,0,1-408.295,1567.976Zm-1.483-16.108a1.907,1.907,0,0,0-1.353.559,1.914,1.914,0,0,0,0,2.7,14.193,14.193,0,0,1,4.183,10.063,11.623,11.623,0,0,0,5.481-3.1,11.775,11.775,0,0,0,.846-15.687l-6.022,6.022a1.262,1.262,0,0,1-1.785,0A1.906,1.906,0,0,0-409.777,1551.868Z" transform="translate(414.211 -1543.31)" fill="#fff"/>
        </g>
        <g id="Group_32" data-name="Group 32" transform="translate(0 6.034)">
          <path id="Path_71" data-name="Path 71" d="M-409.777,1571.3a4.421,4.421,0,0,1-3.136-1.3,4.442,4.442,0,0,1,0-6.274,4.442,4.442,0,0,1,6.275,0h0a4.442,4.442,0,0,1,0,6.274A4.422,4.422,0,0,1-409.777,1571.3Zm0-6.344a1.908,1.908,0,0,0-1.353.559,1.915,1.915,0,0,0,0,2.7,1.914,1.914,0,0,0,2.7,0,1.915,1.915,0,0,0,0-2.7A1.907,1.907,0,0,0-409.777,1564.956Z" transform="translate(414.211 -1562.433)" fill="#fff"/>
        </g>
      </g>
      <g id="Group_34" data-name="Group 34" transform="translate(3.807)">
        <path id="Path_72" data-name="Path 72" d="M-459.152,1571.246a14.236,14.236,0,0,1-10.1-4.176,1.262,1.262,0,0,1,0-1.785l6.962-6.961a1.263,1.263,0,0,1,.893-.37h0a1.262,1.262,0,0,1,.892.37,1.9,1.9,0,0,0,1.351.56,1.9,1.9,0,0,0,1.351-.56,1.915,1.915,0,0,0,0-2.7,14.214,14.214,0,0,1-4.091-11.724,14.128,14.128,0,0,1,4.09-8.473,14.3,14.3,0,0,1,20.2,0,1.263,1.263,0,0,1,0,1.785l-6.962,6.962a1.262,1.262,0,0,1-1.785,0,1.916,1.916,0,0,0-2.7,0,1.914,1.914,0,0,0,0,2.7,14.208,14.208,0,0,1,4.088,11.727,14.133,14.133,0,0,1-4.089,8.47A14.237,14.237,0,0,1-459.152,1571.246Zm-7.373-5.116a11.774,11.774,0,0,0,15.686-.845,11.63,11.63,0,0,0,3.366-6.971,11.7,11.7,0,0,0-3.365-9.655,4.442,4.442,0,0,1,0-6.274,4.443,4.443,0,0,1,5.253-.763l5.258-5.259a11.774,11.774,0,0,0-15.688.845,11.625,11.625,0,0,0-3.366,6.973,11.7,11.7,0,0,0,3.367,9.653,4.441,4.441,0,0,1,0,6.273,4.4,4.4,0,0,1-3.136,1.3,4.412,4.412,0,0,1-2.115-.535Z" transform="translate(469.62 -1531.246)" fill="#fff"/>
      </g>
    </g>
  </g>
</svg>
