<svg xmlns="http://www.w3.org/2000/svg" width="237" height="61.479" viewBox="0 0 237 61.479">
  <g id="Group_46" data-name="Group 46" transform="translate(-122 -347)">
    <g id="Group_38" data-name="Group 38" transform="translate(187.146 371.466)">
      <g id="Group_37" data-name="Group 37">
        <path id="Path_94" data-name="Path 94" d="M-6.238,81.422a3.15,3.15,0,0,1-3.4,2.62c-2.356,0-3.567-1.63-3.567-3.9,0-2.234,1.364-4.014,3.668-4.014a2.992,2.992,0,0,1,3.3,2.687H-8.284a1.182,1.182,0,0,0-1.3-1.047c-.958,0-1.5.839-1.5,2.308,0,1.611.574,2.346,1.491,2.346A1.289,1.289,0,0,0-8.3,81.422Z" transform="translate(13.209 -73.192)" fill="#0082c8"/>
        <path id="Path_95" data-name="Path 95" d="M-4.634,76.268c.782,2.612,1.464,4.943,1.584,5.643h.014c.164-.762.607-2.459,1.51-5.643H.562l-2.544,7.789c-.723,2.177-1.328,2.826-3.145,2.826-.186,0-.619-.014-.983-.057V85.143a5.358,5.358,0,0,0,.542.03,1.322,1.322,0,0,0,1.442-1.1l-2.755-7.8Z" transform="translate(14.491 -73.163)" fill="#0082c8"/>
        <path id="Path_96" data-name="Path 96" d="M.168,73.686H2.263v3.908a2.373,2.373,0,0,1,2.167-.978c2.06,0,3.087,1.7,3.087,3.824,0,2.169-1.114,4.095-3.29,4.095a2.058,2.058,0,0,1-1.989-.892,3.694,3.694,0,0,1-.081.718h-2c.016-.821.016-1.655.016-2.476Zm5.223,6.795c0-1.26-.469-2.186-1.6-2.186-1.2,0-1.622.779-1.622,2.322,0,1.275.378,2.255,1.6,2.255C4.831,82.871,5.391,81.913,5.391,80.481Z" transform="translate(15.916 -73.686)" fill="#0082c8"/>
        <path id="Path_97" data-name="Path 97" d="M9.29,80.532c0,.946.476,1.871,1.52,1.871a1.194,1.194,0,0,0,1.32-.808h2.1a3.315,3.315,0,0,1-3.473,2.447c-2.493,0-3.575-1.863-3.575-3.85,0-2.374,1.218-4.07,3.65-4.07,2.6,0,3.484,1.88,3.484,3.769a4.654,4.654,0,0,1-.028.64Zm2.924-1.288c-.014-.882-.366-1.622-1.388-1.622-1,0-1.408.691-1.491,1.622Z" transform="translate(17.34 -73.192)" fill="#0082c8"/>
        <path id="Path_98" data-name="Path 98" d="M14.338,78.351c0-.753,0-1.421-.016-2.054h2.056c.026.171.054.921.054,1.33a2.422,2.422,0,0,1,2.429-1.5v2c-1.521-.041-2.429.369-2.429,2.445v3.3H14.338Z" transform="translate(18.787 -73.192)" fill="#0082c8"/>
        <path id="Path_99" data-name="Path 99" d="M19.078,73.686h2.1v1.869h-2.1Zm0,3.105h2.1v7.57h-2.1Z" transform="translate(19.75 -73.686)" fill="#0082c8"/>
        <path id="Path_100" data-name="Path 100" d="M22.4,78.2c0-.643,0-1.348-.014-1.907h2.03a9.554,9.554,0,0,1,.081.964,2.31,2.31,0,0,1,2.2-1.139c1.52,0,2.509,1.027,2.509,2.928v4.816H27.1V79.285c0-.851-.284-1.467-1.209-1.467-.89,0-1.4.5-1.4,1.832v4.219H22.4Z" transform="translate(20.42 -73.192)" fill="#0082c8"/>
        <path id="Path_101" data-name="Path 101" d="M36.618,73.686v8.6c0,.689,0,1.388.014,2.081H34.617c-.042-.227-.082-.618-.1-.79a2.28,2.28,0,0,1-2.148.964c-1.915,0-3.133-1.537-3.133-3.9,0-2.329,1.294-4.022,3.438-4.022,1.09,0,1.674.384,1.842.723V73.686Zm-5.224,6.9c0,1.477.575,2.275,1.6,2.275,1.442,0,1.608-1.2,1.608-2.29,0-1.3-.183-2.274-1.553-2.274C31.949,78.294,31.394,79.154,31.394,80.583Z" transform="translate(21.809 -73.686)" fill="#0082c8"/>
        <path id="Path_102" data-name="Path 102" d="M44.039,80.069a3.749,3.749,0,1,1-3.669-3.946C42.6,76.123,44.039,77.695,44.039,80.069Zm-5.36.014c0,1.456.628,2.32,1.637,2.32,1.026,0,1.6-.865,1.6-2.308,0-1.584-.581-2.333-1.625-2.333C39.315,77.762,38.679,78.481,38.679,80.083Z" transform="translate(23.291 -73.192)" fill="#0082c8"/>
        <path id="Path_103" data-name="Path 103" d="M44.51,81.634c.305,1.056,1.189,1.65,2.7,1.65,1.639,0,2.261-.593,2.261-1.417,0-.724-.393-1.259-2.473-1.492-2.452-.28-2.99-1.105-2.99-2.026,0-.855.7-2.041,2.937-2.041,2.505,0,3.111,1.358,3.171,2.139h-.88c-.118-.494-.438-1.39-2.364-1.39-1.622,0-1.983.723-1.983,1.23,0,.678.406,1.084,2.254,1.317,2.628.325,3.209,1.092,3.209,2.215,0,1.3-1,2.215-3.188,2.215s-3.27-.933-3.533-2.4Z" transform="translate(24.724 -73.155)" fill="#0082c8"/>
        <path id="Path_104" data-name="Path 104" d="M50.993,76.478c1.716,3.819,2.73,6.035,2.99,6.7H54c.291-.717,1.133-2.907,2.758-6.7h.912l-3.1,7.323c-1.316,3.077-1.84,3.474-3.312,3.474A5.851,5.851,0,0,1,50.4,87.2v-.843a6.68,6.68,0,0,0,.847.071c.98,0,1.444-.463,2.268-2.269l-3.465-7.682Z" transform="translate(26.025 -73.12)" fill="#0082c8"/>
        <path id="Path_105" data-name="Path 105" d="M57.689,78.356c0-.615,0-1.288-.016-1.844H58.5c.029.275.045.974.045,1.58a2.787,2.787,0,0,1,2.773-1.785c1.672,0,2.812,1.027,2.812,3.1V83.83h-.854V79.589c0-1.407-.538-2.482-2.077-2.482-1.77,0-2.653,1.389-2.653,3.294v3.43h-.854Z" transform="translate(27.57 -73.155)" fill="#0082c8"/>
        <path id="Path_106" data-name="Path 106" d="M65.526,80.355a2.847,2.847,0,0,0,2.9,2.912,2.618,2.618,0,0,0,2.51-1.432h.853a3.459,3.459,0,0,1-3.463,2.2,3.87,3.87,0,0,1-.043-7.727A3.473,3.473,0,0,1,71.907,80.1v.255Zm5.456-.732a2.525,2.525,0,0,0-2.713-2.548,2.6,2.6,0,0,0-2.714,2.548Z" transform="translate(28.985 -73.155)" fill="#0082c8"/>
        <path id="Path_107" data-name="Path 107" d="M72.334,78.5c0-.659,0-1.331-.016-1.99h.824c.016.191.044.939.044,1.75a3.2,3.2,0,0,1,3.039-1.954v.878c-1.7-.016-3.039,1.187-3.039,3.379V83.83h-.853Z" transform="translate(30.537 -73.155)" fill="#0082c8"/>
        <path id="Path_108" data-name="Path 108" d="M83.464,82.8c0,2.82-.77,4.513-3.744,4.513-2.663,0-3.261-1.572-3.408-2.462H77.2c.247.9.857,1.693,2.571,1.693,2.5,0,2.86-1.609,2.86-3.727v-.45A2.869,2.869,0,0,1,79.7,83.976a3.486,3.486,0,0,1-3.47-3.717,3.75,3.75,0,0,1,3.646-3.951c1.751,0,2.507.843,2.754,1.5,0-.406.016-1.073.044-1.292h.808c-.014.7-.014,1.406-.014,2.108Zm-6.356-2.582a2.754,2.754,0,0,0,2.759,2.949c1.729,0,2.789-1.088,2.789-3.035,0-1.987-1.015-3.021-2.7-3.021A2.866,2.866,0,0,0,77.109,80.214Z" transform="translate(31.329 -73.155)" fill="#0082c8"/>
        <path id="Path_109" data-name="Path 109" d="M84.441,76.478c1.717,3.819,2.73,6.035,2.991,6.7h.016c.29-.717,1.133-2.907,2.758-6.7h.912l-3.1,7.323c-1.316,3.077-1.84,3.474-3.312,3.474a5.837,5.837,0,0,1-.855-.073v-.843a6.681,6.681,0,0,0,.845.071c.981,0,1.444-.463,2.269-2.269L83.5,76.478Z" transform="translate(32.802 -73.12)" fill="#0082c8"/>
        <path id="Path_110" data-name="Path 110" d="M92.484,81.591a1.312,1.312,0,0,0,1.433.943c.773,0,1.056-.279,1.056-.737,0-.486-.326-.676-1.411-.943-2.465-.607-2.869-1.371-2.869-2.439,0-1.112.786-2.292,3.07-2.292S96.836,77.376,96.9,78.4H94.908c-.066-.279-.254-.809-1.239-.809-.693,0-.918.308-.918.648,0,.376.236.558,1.465.844,2.525.588,2.883,1.454,2.883,2.564,0,1.253-.954,2.393-3.261,2.393s-3.247-1.108-3.413-2.451Z" transform="translate(34.205 -73.192)" fill="#0082c8"/>
        <path id="Path_111" data-name="Path 111" d="M98.606,76.268c.782,2.612,1.464,4.943,1.584,5.643h.014c.164-.762.607-2.459,1.512-5.643H103.8l-2.542,7.789c-.724,2.177-1.328,2.826-3.146,2.826-.186,0-.619-.014-.981-.057V85.143a5.334,5.334,0,0,0,.541.03,1.322,1.322,0,0,0,1.442-1.1l-2.755-7.8Z" transform="translate(35.408 -73.163)" fill="#0082c8"/>
        <path id="Path_112" data-name="Path 112" d="M105.012,81.591a1.312,1.312,0,0,0,1.434.943c.773,0,1.055-.279,1.055-.737,0-.486-.325-.676-1.409-.943-2.465-.607-2.869-1.371-2.869-2.439,0-1.112.787-2.292,3.07-2.292s3.073,1.253,3.138,2.279h-1.993c-.066-.279-.254-.809-1.239-.809-.693,0-.918.308-.918.648,0,.376.236.558,1.465.844,2.525.588,2.883,1.454,2.883,2.564,0,1.253-.954,2.393-3.261,2.393s-3.247-1.108-3.413-2.451Z" transform="translate(36.744 -73.192)" fill="#0082c8"/>
        <path id="Path_113" data-name="Path 113" d="M108.971,76.613h1.167V74.564h2.1v2.049h1.483V78.19h-1.483v3.735c0,.575.174.8.8.8a4.082,4.082,0,0,0,.477-.022v1.441a4.782,4.782,0,0,1-1.409.144c-1.477,0-1.965-.789-1.965-2.114V78.19h-1.167Z" transform="translate(37.963 -73.508)" fill="#0082c8"/>
        <path id="Path_114" data-name="Path 114" d="M115.62,80.532c0,.946.476,1.871,1.519,1.871a1.2,1.2,0,0,0,1.322-.808h2.1a3.315,3.315,0,0,1-3.473,2.447c-2.494,0-3.575-1.863-3.575-3.85,0-2.374,1.218-4.07,3.65-4.07,2.6,0,3.484,1.88,3.484,3.769a4.653,4.653,0,0,1-.028.64Zm2.924-1.288c-.014-.882-.367-1.622-1.388-1.622-1,0-1.408.691-1.492,1.622Z" transform="translate(38.882 -73.192)" fill="#0082c8"/>
        <path id="Path_115" data-name="Path 115" d="M120.666,78.248c0-.654,0-1.3-.014-1.951h2c.028.184.07.607.081.9a2.363,2.363,0,0,1,2.1-1.078,2,2,0,0,1,1.953,1.151,2.623,2.623,0,0,1,2.332-1.151c1.319,0,2.4.809,2.4,2.778v4.967H129.48V79.157c0-.684-.248-1.353-1.105-1.353-.891,0-1.239.575-1.239,1.735v4.328h-2.055V79.235c0-.784-.194-1.418-1.088-1.418-.851,0-1.257.523-1.257,1.822v4.228h-2.07Z" transform="translate(40.33 -73.192)" fill="#0082c8"/>
      </g>
    </g>
    <g id="Group_45" data-name="Group 45" transform="translate(123 348)">
      <g id="Group_44" data-name="Group 44">
        <g id="Group_40" data-name="Group 40" transform="translate(28.551)">
          <g id="Group_39" data-name="Group 39">
            <circle id="Ellipse_9" data-name="Ellipse 9" cx="2.473" cy="2.473" r="2.473" transform="translate(10.348 38.877)" fill="none" stroke="#0082c8" stroke-width="2"/>
            <circle id="Ellipse_10" data-name="Ellipse 10" cx="3.878" cy="3.878" r="3.878" transform="translate(15.295 44.476)" fill="none" stroke="#0082c8" stroke-width="2"/>
            <circle id="Ellipse_11" data-name="Ellipse 11" cx="3.878" cy="3.878" r="3.878" transform="translate(10.348 12.916)" fill="none" stroke="#0082c8" stroke-width="2"/>
            <circle id="Ellipse_12" data-name="Ellipse 12" cx="2.473" cy="2.473" r="2.473" fill="none" stroke="#0082c8" stroke-width="2"/>
          </g>
        </g>
        <g id="Group_41" data-name="Group 41" transform="translate(0 2.473)">
          <path id="Path_116" data-name="Path 116" d="M-19.052,105.988a28.4,28.4,0,0,1-18.991,7.248,28.5,28.5,0,0,1-28.5-28.5,28.5,28.5,0,0,1,28.5-28.5" transform="translate(66.548 -56.23)" fill="none" stroke="#0082c8" stroke-width="2"/>
        </g>
        <g id="Group_42" data-name="Group 42" transform="translate(5.659 7.707)">
          <path id="Path_117" data-name="Path 117" d="M-23.775,101.229a22.992,22.992,0,0,1-14.982,5.522A23.084,23.084,0,0,1-61.842,83.667,23.085,23.085,0,0,1-38.757,60.582,22.986,22.986,0,0,1-24.488,65.52" transform="translate(61.842 -60.582)" fill="none" stroke="#0082c8" stroke-width="2"/>
        </g>
        <g id="Group_43" data-name="Group 43" transform="translate(12.941 14.478)">
          <path id="Path_118" data-name="Path 118" d="M-28.816,95.291A16.376,16.376,0,0,1-39.343,99.1,16.444,16.444,0,0,1-55.787,82.656,16.444,16.444,0,0,1-39.343,66.212a16.38,16.38,0,0,1,9.515,3.029" transform="translate(55.787 -66.212)" fill="none" stroke="#0082c8" stroke-width="2"/>
        </g>
      </g>
    </g>
  </g>
</svg>
