<svg id="Google_Play-Badge-Logo.wine" xmlns="http://www.w3.org/2000/svg" xmlns:xlink="http://www.w3.org/1999/xlink" width="161.333" height="47.88" viewBox="0 0 161.333 47.88">
  <defs>
    <linearGradient id="linear-gradient" x1="0.849" y1="0.31" x2="0.361" y2="0.799" gradientUnits="objectBoundingBox">
      <stop offset="0" stop-color="#00a0ff"/>
      <stop offset="0.007" stop-color="#00a1ff"/>
      <stop offset="0.26" stop-color="#00beff"/>
      <stop offset="0.512" stop-color="#00d2ff"/>
      <stop offset="0.76" stop-color="#00dfff"/>
      <stop offset="1" stop-color="#00e3ff"/>
    </linearGradient>
    <linearGradient id="linear-gradient-2" x1="0.97" y1="0.436" x2="-1.177" y2="0.436" gradientUnits="objectBoundingBox">
      <stop offset="0" stop-color="#ffe000"/>
      <stop offset="0.409" stop-color="#ffbd00"/>
      <stop offset="0.775" stop-color="orange"/>
      <stop offset="1" stop-color="#ff9c00"/>
    </linearGradient>
    <linearGradient id="linear-gradient-3" x1="0.761" y1="0.213" x2="-0.443" y2="1.411" gradientUnits="objectBoundingBox">
      <stop offset="0" stop-color="#ff3a44"/>
      <stop offset="1" stop-color="#c31162"/>
    </linearGradient>
    <linearGradient id="linear-gradient-4" x1="-0.17" y1="-0.275" x2="0.367" y2="0.26" gradientUnits="objectBoundingBox">
      <stop offset="0" stop-color="#32a071"/>
      <stop offset="0.068" stop-color="#2da771"/>
      <stop offset="0.476" stop-color="#15cf74"/>
      <stop offset="0.801" stop-color="#06e775"/>
      <stop offset="1" stop-color="#00f076"/>
    </linearGradient>
    <linearGradient id="linear-gradient-5" x1="0.624" y1="0.038" x2="-0.364" y2="1.027" gradientUnits="objectBoundingBox">
      <stop offset="0" stop-color="#cc2e36"/>
      <stop offset="1" stop-color="#9c0e4e"/>
    </linearGradient>
    <linearGradient id="linear-gradient-6" x1="5.233" y1="-7.998" x2="-1.121" y2="-1.634" gradientUnits="objectBoundingBox">
      <stop offset="0" stop-color="#008de0"/>
      <stop offset="0.007" stop-color="#008de0"/>
      <stop offset="0.26" stop-color="#00a7e0"/>
      <stop offset="0.512" stop-color="#00b8e0"/>
      <stop offset="0.76" stop-color="#00c4e0"/>
      <stop offset="1" stop-color="#00c7e0"/>
    </linearGradient>
    <linearGradient id="linear-gradient-7" x1="0.943" y1="-0.195" x2="-2.414" y2="-0.195" gradientUnits="objectBoundingBox">
      <stop offset="0" stop-color="#e0c500"/>
      <stop offset="0.409" stop-color="#e0a600"/>
      <stop offset="0.775" stop-color="#e09100"/>
      <stop offset="1" stop-color="#e08900"/>
    </linearGradient>
    <linearGradient id="linear-gradient-8" x1="0.944" y1="0.999" x2="-2.414" y2="0.999" gradientUnits="objectBoundingBox">
      <stop offset="0" stop-color="#ffe840"/>
      <stop offset="0.409" stop-color="#ffce40"/>
      <stop offset="0.775" stop-color="#ffbc40"/>
      <stop offset="1" stop-color="#ffb540"/>
    </linearGradient>
    <linearGradient id="linear-gradient-9" x1="5.219" y1="0.865" x2="-1.113" y2="6.933" gradientUnits="objectBoundingBox">
      <stop offset="0" stop-color="#40b8ff"/>
      <stop offset="0.007" stop-color="#40b9ff"/>
      <stop offset="0.26" stop-color="#40ceff"/>
      <stop offset="0.512" stop-color="#40ddff"/>
      <stop offset="0.76" stop-color="#40e7ff"/>
      <stop offset="1" stop-color="#40eaff"/>
    </linearGradient>
    <linearGradient id="linear-gradient-10" x1="-0.137" y1="-0.184" x2="0.304" y2="0.257" gradientUnits="objectBoundingBox">
      <stop offset="0" stop-color="#65b895"/>
      <stop offset="0.068" stop-color="#62bd95"/>
      <stop offset="0.476" stop-color="#50db97"/>
      <stop offset="0.801" stop-color="#44ed98"/>
      <stop offset="1" stop-color="#40f498"/>
    </linearGradient>
  </defs>
  <path id="Path_73" data-name="Path 73" d="M155.358,47.88H5.975A6,6,0,0,1,0,41.895V5.985A6,6,0,0,1,5.975,0H155.358a6,6,0,0,1,5.975,5.985v35.91a6,6,0,0,1-5.975,5.985" transform="translate(0)"/>
  <path id="Path_74" data-name="Path 74" d="M155.358,0H5.975A6,6,0,0,0,0,5.985v35.91A6,6,0,0,0,5.975,47.88H155.358a6,6,0,0,0,5.975-5.985V5.985A6,6,0,0,0,155.358,0m0,.958a5.029,5.029,0,0,1,5.019,5.027v35.91a5.029,5.029,0,0,1-5.019,5.028H5.975A5.03,5.03,0,0,1,.956,41.895V5.985A5.029,5.029,0,0,1,5.975.958H155.358" transform="translate(0)" fill="#a6a6a6"/>
  <path id="Path_75" data-name="Path 75" d="M925.875,156.807a3.244,3.244,0,0,1-.89,2.4,3.474,3.474,0,0,1-2.634,1.063,3.752,3.752,0,1,1,0-7.5,3.694,3.694,0,0,1,1.472.3,2.958,2.958,0,0,1,1.121.8l-.63.632a2.419,2.419,0,0,0-1.963-.852,2.869,2.869,0,1,0,2,4.935,2.261,2.261,0,0,0,.6-1.455h-2.6v-.863h3.475a3.069,3.069,0,0,1,.05.542" transform="translate(-869.207 -144.546)" fill="#fff"/>
  <path id="Path_76" data-name="Path 76" d="M923.774,154.7h-.12a3.123,3.123,0,0,1-.855,2.313h0a3.354,3.354,0,0,1-2.548,1.026,3.632,3.632,0,1,1,0-7.264,3.575,3.575,0,0,1,1.425.291,2.841,2.841,0,0,1,1.077.77l.092-.077-.084-.085-.63.632.084.084.092-.077a2.543,2.543,0,0,0-2.055-.9,2.844,2.844,0,0,0-2.041.831,3.128,3.128,0,0,0,0,4.315,2.971,2.971,0,0,0,4.128-.006,2.383,2.383,0,0,0,.636-1.529l.011-.13h-2.615v-.623h3.355v-.12l-.118.021a2.914,2.914,0,0,1,.048.521h.239a3.168,3.168,0,0,0-.052-.563l-.018-.1H920.13v1.1h2.723v-.12l-.119-.01a2.144,2.144,0,0,1-.567,1.38,2.733,2.733,0,0,1-3.793,0,2.89,2.89,0,0,1,0-3.971,2.6,2.6,0,0,1,1.875-.764,2.3,2.3,0,0,1,1.872.809l.084.1.722-.724.078-.078-.071-.084a3.07,3.07,0,0,0-1.166-.835,3.812,3.812,0,0,0-1.519-.311,3.871,3.871,0,1,0,0,7.743,3.6,3.6,0,0,0,2.721-1.1l-.087-.083.085.085a3.366,3.366,0,0,0,.925-2.482h-.12m5.508-3h-3.266v2.277h2.945v.863h-2.945v2.277h3.266V158H925.1V150.82h4.186v.882" transform="translate(-867.106 -142.441)" fill="#fff"/>
  <path id="Path_77" data-name="Path 77" d="M1080.052,154.532v-.12h-3.385v2.517h2.945v.623h-2.945v2.517h3.266v.643h-3.947v-6.943h3.947v.763h.119v0h.12v-1h-4.425v7.421h4.425V159.83h-3.265v-2.038h2.945v-1.1h-2.945v-2.038h3.265v-.12h-.12m3.885,6.3h-.922v-6.3h-2v-.882h4.927v.882h-2v6.3" transform="translate(-1017.876 -145.271)" fill="#fff"/>
  <path id="Path_78" data-name="Path 78" d="M1174.467,160.832v-.12h-.8v-6.3h-2v-.643h4.688v.643h-2v6.419h.119v0h.12v-6.18h2V153.53h-5.166v1.122h2v6.3h1.161v-.12h-.12m5.568,0V153.65h.921v7.182h-.921" transform="translate(-1108.405 -145.271)" fill="#fff"/>
  <path id="Path_79" data-name="Path 79" d="M1329.408,160.832h.12v-7.062h.682v6.943h-.8v.12h0v.12h1.041V153.53h-1.16v7.421h.12v-.12m5.008,0h-.922v-6.3h-2v-.882h4.927v.882h-2v6.3" transform="translate(-1257.779 -145.271)" fill="#fff"/>
  <path id="Path_80" data-name="Path 80" d="M1371.059,160.107v-.12h-.8v-6.3h-2v-.643h4.688v.643h-2v6.419h.119v0h.119v-6.18h2v-1.122h-5.166v1.122h2v6.3h1.161v-.12h-.119m6.753-1.529a2.754,2.754,0,0,0,3.9,0,3.065,3.065,0,0,0,0-4.123,2.754,2.754,0,0,0-3.9,0,3.068,3.068,0,0,0,0,4.123Zm4.577.6a3.718,3.718,0,0,1-5.257,0,3.884,3.884,0,0,1,0-5.326,3.705,3.705,0,0,1,5.252,0,3.872,3.872,0,0,1,0,5.321Z" transform="translate(-1294.422 -144.546)" fill="#fff"/>
  <path id="Path_81" data-name="Path 81" d="M1517.484,156.472l-.085.084a2.874,2.874,0,0,0,4.066,0,3.183,3.183,0,0,0,0-4.291,2.874,2.874,0,0,0-4.066,0,3.187,3.187,0,0,0,0,4.291l.085-.084.085-.084a2.948,2.948,0,0,1,0-3.955,2.635,2.635,0,0,1,3.726,0,2.947,2.947,0,0,1,0,3.955,2.635,2.635,0,0,1-3.726,0Zm4.577.6-.085-.083a3.6,3.6,0,0,1-5.087,0l0,0,0,0a3.766,3.766,0,0,1,0-5.159,3.587,3.587,0,0,1,5.082.005,3.753,3.753,0,0,1,0,5.154l.085.083.086.083a3.991,3.991,0,0,0,0-5.487,3.825,3.825,0,0,0-5.424,0h0a4,4,0,0,0,0,5.493l0,0,0,0a3.837,3.837,0,0,0,5.429,0Zm2.349.928v-7.182h1.121l3.485,5.587h.04l-.04-1.384v-4.2h.922V158h-.962l-3.646-5.858h-.04l.04,1.385V158h-.921" transform="translate(-1434.093 -142.441)" fill="#fff"/>
  <path id="Path_82" data-name="Path 82" d="M953.006,160.832h.12v-7.062h.936l3.485,5.587h.229l-.043-1.506v-4.081h.683v6.943h-.776l-3.646-5.858h-.229l.043,1.506v4.352h-.8v.12h0v.12h1.04v-4.595l-.04-1.386-.12,0v.12h.04v-.12l-.1.064,3.681,5.914h1.147V153.53h-1.161v4.324l.04,1.386.12,0v-.12h-.04v.12l.1-.064-3.52-5.643h-1.307v7.421h.119v-.12m37.478,20.349h2.23V166.217h-2.23Zm20.085-9.573-2.556,6.488h-.076l-2.653-6.488h-2.4l3.978,9.068-2.268,5.044h2.327l6.13-14.111Zm-12.646,7.874c-.731,0-1.75-.366-1.75-1.271,0-1.155,1.269-1.6,2.364-1.6a3.964,3.964,0,0,1,2.038.5A2.705,2.705,0,0,1,997.923,179.481Zm.269-8.2a4.185,4.185,0,0,0-3.978,2.291l1.979.828a2.113,2.113,0,0,1,2.038-1.1,2.148,2.148,0,0,1,2.345,1.926v.154a4.925,4.925,0,0,0-2.326-.578c-2.133,0-4.306,1.174-4.306,3.369a3.454,3.454,0,0,0,3.71,3.292A3.146,3.146,0,0,0,1000.5,180h.077v1.155h2.152v-5.737c0-2.656-1.979-4.139-4.535-4.139Zm-13.781,2.149h-3.172V168.3h3.172a2.565,2.565,0,1,1,0,5.129Zm-.057-7.212H979.01v14.964h2.229v-5.669h3.114a4.654,4.654,0,1,0,0-9.295Zm-29.137,13.267a3.1,3.1,0,0,1,0-6.171,3.111,3.111,0,0,1,0,6.171Zm2.56-7.039H957.7a3.521,3.521,0,0,0-2.676-1.138,5.1,5.1,0,0,0,0,10.182,3.465,3.465,0,0,0,2.676-1.157h.077v.733c0,1.948-1.039,2.989-2.715,2.989a2.814,2.814,0,0,1-2.561-1.813l-1.944.81a4.844,4.844,0,0,0,4.505,3.008c2.618,0,4.833-1.543,4.833-5.3v-9.141h-2.118Zm3.658,8.736h2.233V166.216h-2.233Zm5.526-4.937a2.79,2.79,0,0,1,2.657-2.97,1.965,1.965,0,0,1,1.886,1.08Zm6.931-1.7a4.725,4.725,0,0,0-4.351-3.24,4.834,4.834,0,0,0-4.794,5.091,4.978,4.978,0,0,0,5.044,5.091,5.055,5.055,0,0,0,4.236-2.256l-1.733-1.157a2.9,2.9,0,0,1-2.5,1.408,2.586,2.586,0,0,1-2.464-1.543l6.8-2.816Zm-54.146-1.678v2.16h5.16a4.509,4.509,0,0,1-1.175,2.719,5.276,5.276,0,0,1-3.985,1.581,5.747,5.747,0,0,1,0-11.493,5.494,5.494,0,0,1,3.889,1.543l1.521-1.523a7.515,7.515,0,0,0-5.41-2.179,7.907,7.907,0,1,0,0,15.813,6.992,6.992,0,0,0,7.374-7.27,7.013,7.013,0,0,0-.116-1.35Zm13.24,6.614a3.094,3.094,0,1,1,2.869-3.086A2.943,2.943,0,0,1,932.986,179.484Zm0-8.176a5.091,5.091,0,1,0,5.1,5.091A5.014,5.014,0,0,0,932.986,171.307Zm11.13,8.176a3.094,3.094,0,1,1,2.869-3.086A2.943,2.943,0,0,1,944.116,179.484Zm0-8.176a5.091,5.091,0,1,0,5.1,5.091A5.014,5.014,0,0,0,944.116,171.307Z" transform="translate(-862.689 -145.271)" fill="#fff"/>
  <path id="Path_83" data-name="Path 83" d="M222.181,162.523a2.314,2.314,0,0,0-.64,1.769v26.123a2.4,2.4,0,0,0,.553,1.682l.089.085h0a1.535,1.535,0,0,0,1.056.389,2.749,2.749,0,0,0,1.339-.4l17.347-9.872,5.958-3.391a2.231,2.231,0,0,0,1.253-1.552v0a2.23,2.23,0,0,0-1.253-1.553l-5.959-3.391-17.346-9.872a2.755,2.755,0,0,0-1.341-.4,1.537,1.537,0,0,0-1.055.389Z" transform="translate(-209.623 -153.412)" fill="#00c1ff"/>
  <path id="Path_84" data-name="Path 84" d="M.757-521.907l-.089-.085a2.4,2.4,0,0,1-.553-1.682V-549.8a2.314,2.314,0,0,1,.64-1.769l14.807,14.83L.757-521.907" transform="translate(11.803 560.677)" fill="url(#linear-gradient)"/>
  <path id="Path_85" data-name="Path 85" d="M5.622-174.678.686-179.623l4.936-4.944,5.959,3.391a2.23,2.23,0,0,1,1.253,1.553v0a2.231,2.231,0,0,1-1.253,1.552l-5.958,3.391" transform="translate(26.679 203.564)" fill="url(#linear-gradient-2)"/>
  <path id="Path_86" data-name="Path 86" d="M1.5-267.8a1.535,1.535,0,0,1-1.056-.389h0l14.805-14.829,4.936,4.945L2.835-268.2a2.749,2.749,0,0,1-1.339.4" transform="translate(12.12 306.958)" fill="url(#linear-gradient-3)"/>
  <path id="Path_87" data-name="Path 87" d="M15-268.386.19-283.216a1.537,1.537,0,0,1,1.055-.389,2.754,2.754,0,0,1,1.341.4l17.346,9.872L15-268.386" transform="translate(12.368 292.327)" fill="url(#linear-gradient-4)"/>
  <path id="Path_88" data-name="Path 88" d="M1.935-184.645a1.539,1.539,0,0,1-1.056-.389h0l0,0L.8-185.113.79-185.12l.089-.089a1.535,1.535,0,0,0,1.056.389,2.749,2.749,0,0,0,1.339-.4l17.347-9.872.111.111-.113.064L3.273-185.047a2.853,2.853,0,0,1-1.229.4l-.109,0" transform="translate(11.681 223.98)" fill="url(#linear-gradient-5)"/>
  <path id="Path_89" data-name="Path 89" d="M.668-33.449a2.4,2.4,0,0,1-.553-1.682v-.174a2.4,2.4,0,0,0,.553,1.682l.089.085-.089.089" transform="translate(11.803 72.308)" fill="url(#linear-gradient-6)"/>
  <path id="Path_90" data-name="Path 90" d="M.753-89.072l-.111-.111L6.6-92.575a2.23,2.23,0,0,0,1.253-1.552,1.484,1.484,0,0,1-.138.617A2.566,2.566,0,0,1,6.6-92.4L.753-89.072" transform="translate(31.659 118.07)" fill="url(#linear-gradient-7)"/>
  <path id="Path_91" data-name="Path 91" d="M7.844-89.629a2.23,2.23,0,0,0-1.253-1.553L.633-94.573l.111-.111h0l5.847,3.328a2.1,2.1,0,0,1,1.253,1.727" transform="translate(31.668 113.569)" fill="url(#linear-gradient-8)"/>
  <path id="Path_92" data-name="Path 92" d="M.115-32.9v-.183c0-.066,0-.13.005-.193v0a.008.008,0,0,1,0,0v-.007a2.283,2.283,0,0,1,.548-1.469l.087.088A2.314,2.314,0,0,0,.115-32.9" transform="translate(11.803 43.781)" fill="url(#linear-gradient-9)"/>
  <path id="Path_93" data-name="Path 93" d="M20.619-184.454,3.273-194.326a2.754,2.754,0,0,0-1.341-.4,1.537,1.537,0,0,0-1.055.389l-.087-.088q.041-.043.085-.084l0,0a1.536,1.536,0,0,1,1.045-.389h.009a2.753,2.753,0,0,1,1.341.4l17.458,9.935h0l-.111.111" transform="translate(11.682 203.45)" fill="url(#linear-gradient-10)"/>
</svg>
